<mxfile host="app.diagrams.net" modified="2023-09-05T03:52:43.409Z" agent="Mozilla/5.0 (Windows NT 10.0; Win64; x64) AppleWebKit/537.36 (KHTML, like Gecko) Chrome/116.0.0.0 Safari/537.36 Edg/116.0.1938.54" etag="baLY0NI5v42CvV0VH85S" version="21.2.7" type="github">
  <diagram id="C5RBs43oDa-KdzZeNtuy" name="Page-1">
    <mxGraphModel dx="929" dy="1143" grid="1" gridSize="10" guides="1" tooltips="1" connect="1" arrows="1" fold="1" page="1" pageScale="1" pageWidth="827" pageHeight="1169" math="0" shadow="0">
      <root>
        <mxCell id="WIyWlLk6GJQsqaUBKTNV-0" />
        <mxCell id="WIyWlLk6GJQsqaUBKTNV-1" parent="WIyWlLk6GJQsqaUBKTNV-0" />
        <mxCell id="F5A7A3HnkyjoNmIA0WuV-0" value="" style="edgeStyle=orthogonalEdgeStyle;rounded=0;orthogonalLoop=1;jettySize=auto;html=1;" edge="1" parent="WIyWlLk6GJQsqaUBKTNV-1" source="WIyWlLk6GJQsqaUBKTNV-3" target="WIyWlLk6GJQsqaUBKTNV-11">
          <mxGeometry relative="1" as="geometry" />
        </mxCell>
        <mxCell id="WIyWlLk6GJQsqaUBKTNV-3" value="姿态估计模型初始化&lt;br&gt;（init_model）" style="rounded=1;whiteSpace=wrap;html=1;fontSize=12;glass=0;strokeWidth=1;shadow=0;" parent="WIyWlLk6GJQsqaUBKTNV-1" vertex="1">
          <mxGeometry x="690" y="397.5" width="120" height="40" as="geometry" />
        </mxCell>
        <mxCell id="WIyWlLk6GJQsqaUBKTNV-11" value="mesh_model" style="rounded=1;whiteSpace=wrap;html=1;fontSize=12;glass=0;strokeWidth=1;shadow=0;" parent="WIyWlLk6GJQsqaUBKTNV-1" vertex="1">
          <mxGeometry x="690" y="467.5" width="120" height="40" as="geometry" />
        </mxCell>
        <mxCell id="F5A7A3HnkyjoNmIA0WuV-1" value="定义smplx_results用于保存姿态参数&lt;br&gt;（方向，身体姿势，参数等）" style="rounded=1;whiteSpace=wrap;html=1;fontSize=12;glass=0;strokeWidth=1;shadow=0;" vertex="1" parent="WIyWlLk6GJQsqaUBKTNV-1">
          <mxGeometry x="110" y="455" width="160" height="70" as="geometry" />
        </mxCell>
        <mxCell id="F5A7A3HnkyjoNmIA0WuV-5" value="" style="edgeStyle=orthogonalEdgeStyle;rounded=0;orthogonalLoop=1;jettySize=auto;html=1;" edge="1" parent="WIyWlLk6GJQsqaUBKTNV-1" source="F5A7A3HnkyjoNmIA0WuV-2" target="F5A7A3HnkyjoNmIA0WuV-4">
          <mxGeometry relative="1" as="geometry" />
        </mxCell>
        <mxCell id="F5A7A3HnkyjoNmIA0WuV-2" value="视频提取图片帧集合&lt;br&gt;（prepare_frames&lt;span style=&quot;background-color: initial;&quot;&gt;）&lt;/span&gt;" style="rounded=1;whiteSpace=wrap;html=1;fontSize=12;glass=0;strokeWidth=1;shadow=0;" vertex="1" parent="WIyWlLk6GJQsqaUBKTNV-1">
          <mxGeometry x="320" y="390" width="120" height="40" as="geometry" />
        </mxCell>
        <mxCell id="F5A7A3HnkyjoNmIA0WuV-12" style="edgeStyle=orthogonalEdgeStyle;rounded=0;orthogonalLoop=1;jettySize=auto;html=1;entryX=0;entryY=0.5;entryDx=0;entryDy=0;" edge="1" parent="WIyWlLk6GJQsqaUBKTNV-1" source="F5A7A3HnkyjoNmIA0WuV-4" target="F5A7A3HnkyjoNmIA0WuV-8">
          <mxGeometry relative="1" as="geometry">
            <Array as="points">
              <mxPoint x="380" y="575" />
            </Array>
          </mxGeometry>
        </mxCell>
        <mxCell id="F5A7A3HnkyjoNmIA0WuV-4" value="frames_iter" style="whiteSpace=wrap;html=1;rounded=1;glass=0;strokeWidth=1;shadow=0;" vertex="1" parent="WIyWlLk6GJQsqaUBKTNV-1">
          <mxGeometry x="320" y="460" width="120" height="60" as="geometry" />
        </mxCell>
        <mxCell id="F5A7A3HnkyjoNmIA0WuV-6" value="获得检测结果" style="rounded=1;whiteSpace=wrap;html=1;fontSize=12;glass=0;strokeWidth=1;shadow=0;" vertex="1" parent="WIyWlLk6GJQsqaUBKTNV-1">
          <mxGeometry x="310" y="620" width="120" height="40" as="geometry" />
        </mxCell>
        <mxCell id="F5A7A3HnkyjoNmIA0WuV-9" value="" style="edgeStyle=orthogonalEdgeStyle;rounded=0;orthogonalLoop=1;jettySize=auto;html=1;" edge="1" parent="WIyWlLk6GJQsqaUBKTNV-1" source="F5A7A3HnkyjoNmIA0WuV-7" target="F5A7A3HnkyjoNmIA0WuV-8">
          <mxGeometry relative="1" as="geometry" />
        </mxCell>
        <mxCell id="F5A7A3HnkyjoNmIA0WuV-7" value="人体检测模型初始化" style="rounded=1;whiteSpace=wrap;html=1;fontSize=12;glass=0;strokeWidth=1;shadow=0;" vertex="1" parent="WIyWlLk6GJQsqaUBKTNV-1">
          <mxGeometry x="515" y="397.5" width="120" height="40" as="geometry" />
        </mxCell>
        <mxCell id="F5A7A3HnkyjoNmIA0WuV-14" value="" style="edgeStyle=orthogonalEdgeStyle;rounded=0;orthogonalLoop=1;jettySize=auto;html=1;" edge="1" parent="WIyWlLk6GJQsqaUBKTNV-1" source="F5A7A3HnkyjoNmIA0WuV-8" target="F5A7A3HnkyjoNmIA0WuV-13">
          <mxGeometry relative="1" as="geometry" />
        </mxCell>
        <mxCell id="F5A7A3HnkyjoNmIA0WuV-8" value="&#xa;&lt;div style=&quot;color: rgb(41, 41, 41); background-color: rgb(255, 255, 255); font-family: Consolas, &amp;quot;Courier New&amp;quot;, monospace; font-weight: normal; font-size: 14px; line-height: 19px;&quot;&gt;&lt;div&gt;&lt;span style=&quot;color: #292929;&quot;&gt;person_det_model&lt;/span&gt;&lt;/div&gt;&lt;/div&gt;&#xa;&#xa;" style="whiteSpace=wrap;html=1;rounded=1;glass=0;strokeWidth=1;shadow=0;" vertex="1" parent="WIyWlLk6GJQsqaUBKTNV-1">
          <mxGeometry x="500" y="547.5" width="150" height="55" as="geometry" />
        </mxCell>
        <mxCell id="F5A7A3HnkyjoNmIA0WuV-13" value="人体检测结果&lt;br&gt;mmdet_results" style="whiteSpace=wrap;html=1;rounded=1;glass=0;strokeWidth=1;shadow=0;" vertex="1" parent="WIyWlLk6GJQsqaUBKTNV-1">
          <mxGeometry x="690" y="545" width="120" height="60" as="geometry" />
        </mxCell>
      </root>
    </mxGraphModel>
  </diagram>
</mxfile>
